<?xml version="1.0" encoding="UTF-8"?>
<svg id="uuid-c5d3e8e5-4b7c-4294-a395-e474c795be32" data-name="Layer 3" xmlns="http://www.w3.org/2000/svg" viewBox="0 0 420.96 229.1">
  <defs>
    <style>
      .uuid-8592f6fe-4967-423f-8ab2-fd5012dca5d0 {
        stroke-width: 0px;
      }
    </style>
  </defs>
  <path class="uuid-8592f6fe-4967-423f-8ab2-fd5012dca5d0" d="m405.34,56.55c-11.74,2.27-26.5,1.51-42.41,6.82-15.9,5.3-15.52,6.82-21.96,10.22-6.44,3.41-9.09,3.41-12.87-3.03-3.79-6.44-12.49-17.04-22.34-20.45-9.84-3.41-15.9-4.16-17.42,7.19-1.51,11.36-1.51,26.5,2.27,38.24,3.79,11.74,10.22,18.55,10.22,18.55v7.95s-9.09-.76-14.77,3.03c0,0-7.19-62.47-42.79-95.79C207.69-4.03,160.74-.24,134.62.51c-26.13.76-86.33,13.63-115.1,59.07C-9.26,105.02.2,148.18,7.78,164.84c7.57,16.66,17.8,24.99,21.96,29.53,2.41,2.63,5.19,3.6,8.14,3.6,4.76,7.8,11.07,13.53,19.48,17.24,21.79,9.63,46.68,13.05,70.31,13.76,25.46.76,50.9-1.95,76.07-5.54,17.65-2.51,35.25-5.42,52.71-9.01,9.95,3.5,21.73,6.89,30.39,9.11,14.77,3.79,29.15,1.14,34.08-.38,4.92-1.51,7.95-8.71,2.65-14.39-2.45-2.62-8.12-6.37-13.52-9.65,2.64-1.45,5.17-3.13,7.52-5.11,6.08-5.13,11.04-12,13.75-19.59,9.56-11.69,15.4-27.25,20.27-40.63,0,0,10.98.38,22.72-2.27,11.74-2.65,22.72-7.19,28.78-16.28,6.06-9.09,12.49-20.45,16.66-35.21,4.16-14.77-2.65-25.75-14.39-23.48Zm-169.87,123.21c-3.74,6.48-11.03,9.28-16.48,6.45,4.7,1.03,10.43-2.32,13.63-8.3,3.36-6.28,2.74-13.27-1.22-16.41.36.15.72.33,1.07.53,5.49,3.17,6.83,11.11,3.01,17.73Zm-3.67-8.48c0,2.37-1.92,4.29-4.29,4.29s-4.29-1.92-4.29-4.29,1.92-4.29,4.29-4.29,4.29,1.92,4.29,4.29Zm-13.42,45.48c-44.86,7.33-91.92,13.59-136.86,3.5-14.02-3.15-32.01-6.95-40.34-19.65-.59-.9-1.15-1.81-1.72-2.72,1.66-.18,3.35-.63,5.05-1.24,5.3-1.89,6.44-1.89,16.66,2.65,10.22,4.54,31.43,9.84,65.88,9.84s44.68-2.65,60.96-6.44c16.28-3.79,35.59-4.54,48.46-5.3,0,0-4.92,4.54,3.41,9.84,2.02,1.29,4.97,2.69,8.47,4.12-9.96,1.98-19.97,3.75-29.97,5.39Zm86.23-20.85c-3.9-2.24-6.8-3.8-6.8-3.8,0,0,8.03,1.34,19.15-5.22-.19.2-.38.41-.58.61-3.5,3.51-7.49,6.22-11.77,8.41Z"/>
</svg>